<svg xmlns="http://www.w3.org/2000/svg" width="148" height="39" fill="none" xmlns:v="https://vecta.io/nano"><g stroke="#fff" stroke-width=".75" stroke-miterlimit="10"><path d="M96.6 19.53H94v.07l2.6-.07z" fill="#000"/><g fill="#fff"><path d="M96.6 19.53h11.34V9.99h-.22c-.65 6.95-3.38 9.15-11.12 9.54z"/><path d="M107.94 19.53H96.6l-2.6.07c9.74-.05 13.03 1.81 13.8 9.48h.13v-9.55h.01z"/><path d="M107.94 29.07h-.13l.13 1.79v-1.79zm-.06-23.47l-.16 4.39h.22V8.08l-.06-2.48z"/><path d="M107.94 29.07v1.79l.07 2.6.16-4.39h-.23z"/><path d="M107.94 19.53v9.55h.23c.64-6.98 3.4-9.18 11.23-9.55h-11.46zm0-11.45v1.91h.14l-.14-1.91z"/><path d="M121.88 19.47c-9.74.04-13.03-1.81-13.8-9.48h-.14v9.54h11.45c.78-.04 1.6-.06 2.49-.06z"/></g><path d="M119.39 19.53h2.48v-.06l-2.48.06z" fill="#000"/><path d="M74.2 29.16c2.57 1.98 5.9 3.72 9.81 5.12 6.64 2.38 14.93 3.79 23.92 3.79 9 0 17.29-1.41 23.93-3.79 9.45-3.39 15.55-8.73 15.55-14.75s-6.1-11.35-15.55-14.74C125.22 2.41 116.93 1 107.93 1c-8.99 0-17.28 1.41-23.92 3.79-3.91 1.4-7.25 3.14-9.81 5.11" stroke-linecap="round"/><path d="M94.01 19.53v.07c.01 3.86.9 7.43 2.43 10.39 2.51 4.88 6.73 8.08 11.5 8.08 4.78 0 9-3.2 11.51-8.08 1.53-2.98 2.43-6.58 2.43-10.46v-.06c-.01-3.85-.9-7.43-2.43-10.39C116.94 4.2 112.72 1 107.94 1s-8.99 3.2-11.5 8.08c-1.54 2.97-2.43 6.57-2.43 10.45z"/><path d="M79.95 19.53c0 4.96 2.95 9.48 7.75 12.81 5.1 3.53 12.28 5.73 20.24 5.73s15.15-2.2 20.25-5.73c4.8-3.33 7.75-7.84 7.75-12.81 0-4.96-2.95-9.47-7.75-12.8C123.09 3.2 115.9 1 107.94 1S92.8 3.2 87.7 6.73c-4.8 3.33-7.75 7.83-7.75 12.8z"/><path d="M108.08 9.99c4.07-.01 7.93-.34 11.37-.91 3.36-.56 6.33-1.36 8.74-2.35 1.45-.59 2.69-1.24 3.68-1.94m-47.85 0c1 .7 2.23 1.35 3.68 1.94 2.4.98 5.38 1.78 8.74 2.35 3.42.58 7.25.9 11.29.91m.08 19.08c-4.07.01-7.92.33-11.37.91-3.36.56-6.33 1.36-8.74 2.35-1.44.59-2.68 1.24-3.68 1.94m47.85 0c-1-.7-2.24-1.36-3.69-1.94-2.41-.98-5.38-1.78-8.74-2.35-3.42-.58-7.25-.9-11.29-.91m-.21 1.79v7.21m0-37.07v7.08" stroke-linecap="round"/><path d="M1 19.53c0 6.02 6.1 11.36 15.55 14.75 6.63 2.38 14.93 3.79 23.93 3.79 8.99 0 17.29-1.41 23.93-3.79 3.91-1.4 7.24-3.13 9.8-5.11 3.64-2.8 5.75-6.1 5.75-9.63 0-3.52-2.1-6.82-5.75-9.63-2.57-1.98-5.9-3.72-9.8-5.11-6.64-2.38-14.93-3.79-23.93-3.79s-17.3 1.4-23.94 3.78C7.09 8.17 1 13.52 1 19.53z"/><path d="M26.54 19.53c0 3.88.9 7.48 2.42 10.46 2.51 4.88 6.73 8.08 11.51 8.08s8.99-3.2 11.51-8.08c1.53-2.98 2.42-6.58 2.42-10.46 0-3.87-.9-7.47-2.42-10.45C49.46 4.2 45.25 1 40.47 1s-9 3.2-11.51 8.08c-1.53 2.97-2.42 6.57-2.42 10.45z"/><path d="M12.48 19.53c0 4.96 2.94 9.48 7.75 12.81 5.09 3.53 12.28 5.73 20.24 5.73s15.15-2.2 20.24-5.73c4.8-3.33 7.75-7.84 7.75-12.81s-2.95-9.47-7.75-12.8C55.62 3.2 48.43 1 40.47 1S25.32 3.2 20.23 6.73c-4.81 3.33-7.75 7.84-7.75 12.8z"/><g stroke-linecap="round"><path d="M16.54 4.79c1 .7 2.24 1.35 3.69 1.94 2.4.98 5.38 1.78 8.73 2.35 3.49.58 7.39.91 11.51.91s8.02-.33 11.51-.91c3.35-.56 6.33-1.36 8.73-2.35 1.45-.59 2.69-1.24 3.69-1.94m0 29.48c-1-.7-2.24-1.36-3.69-1.94-2.4-.98-5.37-1.78-8.73-2.35-3.49-.59-7.39-.91-11.51-.91s-8.02.33-11.51.91c-3.35.56-6.33 1.36-8.73 2.35-1.45.58-2.69 1.24-3.69 1.94"/><path d="M40.47 1v8.99 28.08"/></g></g><path d="M20.04 22.52l.05-.46c.09-.76.28-1.5.55-2.22.48-1.31 1.17-2.51 1.97-3.65.7-1 1.46-1.94 2.27-2.85l1.71-1.91c.01-.02.03-.03.06-.04-.02.03-.03.06-.05.09-.56.94-1.01 1.92-1.32 2.97-.22.73-.36 1.48-.35 2.25.01.82.18 1.59.63 2.29a3.83 3.83 0 0 0 2.46 1.71c.72.17 1.44.19 2.17.15 1.06-.06 2.09-.29 3.11-.57l6.55-1.74 6.21-1.65 6.88-1.83 4.51-1.2 6.07-1.61 2.23-.59c.02-.01.04-.01.07 0l-.37.16-8.55 3.66-9.47 4.05-9.47 4.05-5.92 2.52c-1.24.52-2.5.95-3.81 1.24-1.02.23-2.04.37-3.09.34-.79-.03-1.57-.15-2.3-.47-1.45-.64-2.38-1.73-2.71-3.29a6.78 6.78 0 0 1-.08-.63c0-.03-.01-.06-.02-.1l.01-.67z" fill="#fff"/></svg>